<svg xmlns="http://www.w3.org/2000/svg" class="svg-standalone-icon" width="100%" viewBox="65 182.7623765197489 215.49923554006062 104.47524696050226"><g data-paper-data="{&quot;isIcon&quot;:&quot;true&quot;,&quot;iconType&quot;:&quot;icon&quot;,&quot;rawIconId&quot;:&quot;96247d8a-923f-4d35-a2de-2b5c064a88c3&quot;,&quot;source&quot;:&quot;inline&quot;,&quot;selectedEffects&quot;:{&quot;container&quot;:&quot;&quot;,&quot;transformation&quot;:&quot;&quot;,&quot;pattern&quot;:&quot;&quot;},&quot;isDetailed&quot;:false,&quot;fillRule&quot;:&quot;nonzero&quot;,&quot;bounds&quot;:{&quot;x&quot;:65,&quot;y&quot;:182.7623765197489,&quot;width&quot;:215.49923554006062,&quot;height&quot;:104.47524696050226},&quot;iconStyle&quot;:&quot;standalone&quot;,&quot;suitableAsStandaloneIcon&quot;:true}" fill-rule="nonzero"><path d="M99.26666,243.37629c0,3.35052 -5.17807,6.70103 -13.55437,6.70103c-6.54874,0 -11.42222,2.13215 -11.42222,4.2643c0,2.58904 7.76711,4.72119 7.76711,8.07171c0,1.97986 -3.04593,4.11199 -3.04593,6.39645c0,0.45689 0.15229,0.91378 0.60918,1.37066c2.43674,2.43674 9.44237,2.74133 15.99111,7.9194c7.46252,5.93956 20.25541,9.13778 32.896,9.13778c12.336,0 21.62607,-3.19822 30.15467,-7.46252c0.15229,0 1.21837,-0.60918 2.13215,-0.60918c1.52297,0 2.28444,1.37066 2.28444,2.89363c0,2.28444 1.97986,3.19822 3.65511,3.19822c1.97986,0 3.80741,-1.37066 3.80741,-3.35052c0,-1.52297 -1.21837,-3.35052 -3.35052,-3.80741c-1.21837,-0.3046 -1.97986,-0.91378 -1.97986,-1.67526c0,-0.60918 0.45689,-1.37066 2.58904,-2.89363c2.28444,-1.67526 2.89363,-2.58904 2.89363,-4.56889c0,-2.89363 -1.06607,-9.29008 -5.17807,-13.40207c-5.02578,-5.02578 -2.74133,-10.66074 -8.224,-10.66074h-19.03703c-2.28444,0 -4.41659,-2.13215 -7.00563,-2.13215c-1.82755,0 -3.35052,1.06607 -3.35052,2.89363c0,1.82755 1.37066,2.89363 2.89363,2.89363c1.37066,0 1.82755,-0.76148 3.35052,-1.21837c0.45689,-0.15229 0.76148,-0.15229 0.91378,-0.15229c1.52297,0 1.97986,0.91378 1.97986,2.13215c0,3.50281 -4.41659,7.76711 -8.68089,7.76711c-5.02578,0 -9.29008,-6.24414 -9.29008,-13.24978c0,-10.20385 -8.98548,-8.52859 -9.13778,-11.72681c-0.15229,-3.04593 8.68089,-2.43674 10.50844,-10.81304c0.91378,-4.2643 4.11199,-8.37629 10.96533,-8.37629c5.63496,0 10.35615,2.74133 10.35615,4.87348c0,0.3046 -0.15229,1.37066 -1.37066,1.37066c-1.37066,0 -1.67526,-1.52297 -3.04593,-1.52297c-0.45689,0 -1.06607,0.15229 -1.06607,0.91378c0,0.45689 0.3046,1.06607 0.60918,1.82755c0.3046,0.91378 0.91378,1.97986 1.37066,4.41659h25.73808c7.9194,0 21.47378,-2.74133 21.47378,-6.54874c0,-4.56889 -19.79852,-5.33037 -19.79852,-11.26992c0,-2.89363 4.56889,-5.17807 4.56889,-7.15793c0,-1.37066 -1.97986,-3.04593 -4.56889,-4.72119c-8.98548,-5.78725 -20.1031,-12.336 -37.16029,-12.336c-22.08296,0 -38.83555,10.96533 -42.33837,17.20948c-2.58904,4.56889 -8.98548,5.33037 -8.98548,7.9194c0,3.80741 12.64059,5.02578 12.64059,10.96533c0,2.89363 -3.35052,5.78725 -10.96533,8.68089c-4.87348,1.82755 -11.11763,2.43674 -11.11763,3.9597c0,3.35052 31.52533,3.50281 31.52533,11.8791zM155.76858,234.8477c3.19822,0 5.17807,-0.60918 5.17807,-2.89363c0,-1.97986 1.67526,-2.43674 1.67526,-3.35052c0,-0.76148 -1.06607,-1.21837 -3.80741,-1.21837c-5.63496,0 -13.40207,1.82755 -13.40207,3.50281c0,1.21837 3.80741,3.9597 10.35615,3.9597zM164.75407,248.70666c0,1.67526 0.60918,2.89363 1.67526,2.89363c2.28444,0 9.89926,-5.02578 9.89926,-8.07171c0,-1.52297 -2.13215,-2.74133 -4.41659,-2.74133c-4.72119,0 -7.15793,4.72119 -7.15793,7.9194zM84.03703,244.74696c0,1.21837 0.3046,1.67526 2.28444,1.67526c3.50281,0 8.37629,-1.52297 8.37629,-3.35052c0,-2.28444 -7.31022,-4.2643 -9.89926,-4.2643c-1.06607,0 -2.74133,0.3046 -2.74133,1.37066c0,1.06607 1.97986,1.67526 1.97986,4.56889zM97.5914,218.24741c0,-1.82755 5.17807,-3.50281 8.07171,-3.50281c2.74133,0 4.2643,1.52297 4.2643,3.04593c0,1.82755 -2.28444,2.43674 -6.09185,2.43674c-5.78725,0 -6.24414,-1.37066 -6.24414,-1.97986zM164.90636,219.16118c0,-1.82755 1.21837,-3.19822 4.72119,-3.19822c3.50281,0 7.76711,1.37066 7.76711,2.58904c0,1.21837 -5.33037,2.89363 -8.83318,2.89363c-3.50281,0 -3.65511,-1.67526 -3.65511,-2.28444zM89.06282,268.35288c0,-0.60918 0.45689,-1.06607 1.06607,-1.06607c0.91378,0 2.58904,0.91378 6.39645,1.67526c4.87348,0.91378 8.07171,0.60918 8.07171,2.43674c0,1.37066 -1.97986,1.97986 -3.50281,1.97986c-3.04593,0 -12.03141,-2.28444 -12.03141,-5.02578zM70.48267,208.65273c2.43674,0 3.35052,-1.37066 3.35052,-3.04593c0,-0.76148 -0.15229,-2.43674 -2.58904,-2.43674c-2.43674,0 -6.24414,1.67526 -6.24414,2.89363c0,1.21837 3.04593,2.58904 5.48267,2.58904zM116.78074,232.10637c0,0.91378 1.06607,2.58904 3.9597,2.58904c0.91378,0 4.56889,-0.15229 4.56889,-2.28444c0,-1.97986 -2.89363,-2.28444 -4.2643,-2.28444c-2.28444,0 -4.2643,0.91378 -4.2643,1.97986zM161.55584,196.46903c1.06607,0 3.9597,0.15229 3.9597,2.13215c0,1.52297 -1.82755,2.28444 -4.41659,2.28444c-1.06607,0 -4.11199,-0.15229 -4.11199,-1.97986c0,-1.52297 1.97986,-2.43674 4.56889,-2.43674zM173.28266,206.06371c0,2.58904 8.52859,2.74133 14.62044,4.2643c6.85333,1.67526 12.4883,5.63496 12.4883,8.83318c0,4.72119 -12.4883,7.31022 -16.60029,8.37629c-3.9597,1.06607 -7.31022,3.04593 -7.31022,4.41659c0,1.21837 2.43674,2.74133 5.33037,3.80741c7.31022,2.74133 10.66074,4.11199 10.66074,10.35615c0,6.24414 3.19822,4.2643 3.19822,10.35615c0,5.48267 -9.89926,9.44237 -9.89926,17.97097v10.81304h80.41244v-6.09185c0,-10.05155 -5.33037,-8.07171 -5.33037,-13.40207c0,-3.35052 1.97986,-4.87348 1.97986,-7.46252c0,-1.97986 -1.06607,-4.87348 -4.87348,-4.87348c-2.74133,0 -3.50281,1.67526 -7.46252,1.67526h-24.5197c-2.89363,0 -5.93956,-3.35052 -5.93956,-6.24414c0,-2.28444 1.67526,-3.80741 5.93956,-3.80741h30.15467c5.63496,0 6.39645,-1.97986 6.39645,-3.50281c0,-4.11199 -6.09185,-4.2643 -6.09185,-9.13778c0,-3.80741 4.11199,-5.63496 7.61482,-6.70103c2.89363,-0.91378 3.65511,-1.52297 3.65511,-2.28444c0,-1.06607 -1.82755,-1.97986 -3.9597,-1.97986c-4.2643,0 -7.31022,3.50281 -14.31585,3.50281h-23.45362c-2.43674,0 -1.21837,-2.13215 -2.89363,-3.80741c-1.52297,-1.52297 -5.02578,-1.52297 -5.02578,-3.50281c0,-1.67526 2.28444,-2.74133 8.68089,-2.74133c4.2643,0 7.9194,-0.45689 7.9194,-1.67526c0,-1.67526 -7.46252,-0.91378 -7.46252,-3.65511c0,-2.58904 5.93956,-3.04593 11.72681,-3.04593c6.70103,0 13.09748,0.60918 13.09748,3.04593c0,2.28444 -6.24414,1.67526 -6.24414,3.35052c0,1.82755 7.9194,1.97986 16.60029,1.97986c4.72119,0 6.39645,-0.91378 6.39645,-1.82755c0,-0.45689 -0.60918,-0.91378 -2.43674,-1.52297c-3.65511,-1.21837 -5.48267,-2.74133 -5.48267,-5.02578c0,-3.80741 5.33037,-2.58904 5.33037,-11.72681v-10.05155h-80.41244v10.96533c0,6.09185 -12.4883,7.15793 -12.4883,10.35615zM243.79584,264.24088c5.02578,0 10.35615,1.21837 10.35615,2.58904c0,1.52297 -6.85333,3.65511 -12.1837,3.65511c-3.19822,0 -5.93956,-0.76148 -5.93956,-2.89363c-0.15229,-2.43674 3.65511,-3.35052 7.76711,-3.35052zM183.02962,259.06281c0,1.97986 1.82755,4.2643 3.9597,4.2643c2.58904,0 6.39645,-3.35052 6.39645,-6.09185c0,-2.13215 -1.97986,-2.74133 -3.65511,-2.74133c-2.89363,0 -6.70103,1.82755 -6.70103,4.56889zM268.31553,220.98874c0.15229,1.06607 1.97986,1.52297 3.80741,1.52297c2.74133,0 8.37629,-1.06607 8.37629,-4.2643c0,-1.97986 -2.74133,-2.28444 -3.65511,-2.28444c-2.74133,0 -8.83318,2.74133 -8.52859,5.02578zM192.47199,204.08385c0,-1.52297 5.17807,-3.50281 9.13778,-3.50281c2.43674,0 4.41659,0.76148 4.41659,2.89363c0,2.13215 -1.97986,2.74133 -4.2643,2.74133c-1.97986,0 -9.29008,-0.45689 -9.29008,-2.13215zM185.61865,231.95406c0.3046,-1.52297 8.37629,-4.41659 10.35615,-4.41659c1.06607,0 1.06607,0.76148 1.06607,0.91378c0,5.02578 -4.72119,5.63496 -6.70103,5.63496c-2.89363,0 -4.87348,-1.37066 -4.72119,-2.13215zM268.62013,247.0314c1.97986,0 3.50281,-1.37066 3.50281,-3.04593c0,-1.67526 -1.52297,-3.04593 -3.50281,-3.04593c-1.97986,0 -3.65511,1.37066 -3.65511,3.04593c0,1.67526 1.67526,3.04593 3.65511,3.04593zM229.32768,252.51407c1.21837,0 3.35052,-0.3046 3.35052,-1.97986c0,-1.67526 -2.28444,-3.65511 -4.56889,-3.65511c-1.21837,0 -2.43674,0.45689 -2.43674,2.43674c0,2.28444 1.52297,3.19822 3.65511,3.19822zM221.10369,273.53096c0,-1.21837 0.91378,-2.13215 1.97986,-2.13215c1.21837,0 3.04593,0.91378 3.04593,2.13215c0,1.06607 -1.82755,1.97986 -3.04593,1.97986c-1.06607,0 -1.97986,-0.91378 -1.97986,-1.97986zM263.44205,265.30696c0,1.21837 0.91378,2.13215 2.13215,2.13215c1.06607,0 1.97986,-0.91378 1.97986,-2.13215c0,-1.06607 -0.91378,-2.13215 -1.97986,-2.13215c-1.21837,0 -2.13215,1.06607 -2.13215,2.13215zM189.88295,253.27555c1.06607,0 1.97986,-1.06607 1.97986,-2.13215c0,-1.21837 -0.91378,-2.13215 -1.97986,-2.13215c-1.21837,0 -2.13215,0.91378 -2.13215,2.13215c0,1.06607 0.91378,2.13215 2.13215,2.13215z" data-paper-data="{&quot;isPathIcon&quot;:true}" style="fill: rgb(0,195,137);"></path></g></svg>