<svg xmlns:mydata="http://www.w3.org/2000/svg" mydata:contrastcolor="ffffff" mydata:template="Contrast" mydata:presentation="2.5" mydata:layouttype="undefined" mydata:specialfontid="undefined" mydata:id1="887" mydata:id2="595" mydata:companyname="class exchange" mydata:companytagline="" version="1.1" xmlns="http://www.w3.org/2000/svg" xmlns:xlink="http://www.w3.org/1999/xlink" viewBox="65 180.77409327309573 420 108.4518134538086" class="watermark-logo"><g fill="#00c389" fill-rule="nonzero" stroke="none" stroke-width="1" stroke-linecap="butt" stroke-linejoin="miter" stroke-miterlimit="10" stroke-dasharray="" stroke-dashoffset="0" font-family="none" font-weight="none" font-size="none" text-anchor="none" style="mix-blend-mode: normal"><g data-paper-data="{&quot;isGlobalGroup&quot;:true,&quot;bounds&quot;:{&quot;x&quot;:65,&quot;y&quot;:180.77409327309573,&quot;width&quot;:420,&quot;height&quot;:108.4518134538086}}"><g data-paper-data="{&quot;stacked&quot;:true,&quot;isPrimaryText&quot;:true}"><path d="M357.19204,219.69197v0h-1.94589c-5.29946,0 -9.88128,2.1115 -13.74546,6.33451c-0.24841,0.27601 -0.51062,0.53823 -0.78664,0.78664c-1.68368,1.51807 -4.1264,2.27711 -7.32815,2.27711c-3.75378,0 -6.40351,-1.32486 -7.94918,-3.97459c-1.54567,-2.62213 -2.31851,-7.01074 -2.31851,-13.16583v-4.0574c0.0828,-5.65827 0.92464,-9.78467 2.52552,-12.3792c1.60088,-2.56692 4.1402,-3.85039 7.61797,-3.85039c3.39496,0 5.92049,0.75904 7.57657,2.27711c1.26966,1.18686 2.0839,2.93954 2.44272,5.25805c0.11041,0.66243 0.39332,1.21446 0.84874,1.65608c0.45542,0.44162 1.00055,0.66243 1.63538,0.66243v0c3.36736,0 5.80318,-1.47667 7.30745,-4.43001c1.50427,-2.95334 1.23516,-5.82388 -0.80734,-8.61162c-0.66243,-0.77284 -1.39387,-1.49047 -2.19431,-2.1529c-4.223,-3.69858 -9.82607,-5.54787 -16.80921,-5.54787c-4.85783,0 -9.13604,1.15926 -12.83462,3.47777c-3.69858,2.29091 -6.52771,5.56167 -8.48741,9.81227c-1.95969,4.223 -2.93954,9.14984 -2.93954,14.78051v2.85674c0,8.97043 2.18051,15.92597 6.54152,20.86661c4.33341,4.91304 10.2815,7.36956 17.84426,7.36956c4.60942,0 8.69442,-0.84184 12.25499,-2.52552c3.56057,-1.68368 6.33451,-4.0574 8.3218,-7.12114c1.9873,-3.06375 3.06375,-6.59672 3.22936,-10.59891z" data-paper-data="{&quot;glyphName&quot;:&quot;C&quot;,&quot;glyphIndex&quot;:0,&quot;firstGlyphOfWord&quot;:true,&quot;word&quot;:1,&quot;line&quot;:1,&quot;firstGlyphOfFirstLine&quot;:true}" style="fill: rgb(0,195,137);"></path><path d="M371.88975,240.02035v0v-46.66005c0,-3.36736 -1.13855,-6.2448 -3.41566,-8.63232c-2.27711,-2.38752 -5.03034,-3.58127 -8.2597,-3.58127h-0.74524v48.10912c0,2.95334 1.00745,5.48576 3.02235,7.59727c2.0149,2.1115 4.45761,3.16725 7.32815,3.16725z" data-paper-data="{&quot;glyphName&quot;:&quot;l&quot;,&quot;glyphIndex&quot;:1,&quot;word&quot;:1,&quot;line&quot;:1}" style="fill: rgb(0,195,137);"></path><path d="M406.1706,239.35792l5.46506,-0.0828v-0.62103c-1.07645,-1.95969 -1.64228,-4.80263 -1.69748,-8.52881v-17.92706c-0.0552,-4.38861 -1.55948,-7.85258 -4.51282,-10.3919c-2.92574,-2.51172 -6.92793,-3.76758 -12.00658,-3.76758c-5.07864,0 -9.24645,1.22826 -12.5034,3.68478c-3.28456,2.42892 -4.92684,5.60307 -4.92684,9.52246h12.3792c0,-2.95334 1.47667,-4.43001 4.43001,-4.43001c3.14655,0 4.71983,1.86309 4.71983,5.58927v2.1529h-3.80898c-6.07229,0 -10.70932,1.11785 -13.91107,3.35356c-4.1678,2.95334 -5.60307,7.75597 -4.30581,14.40789c3.09135,5.13385 7.43856,7.70077 13.04163,7.70077c4.085,0 7.27295,-1.44907 9.56386,-4.34721c1.84929,2.18051 4.54042,3.40876 8.07339,3.68478zM391.51429,231.03612v0c-1.18686,0 -2.1529,-0.34502 -2.89814,-1.03505c-0.77284,-0.71763 -1.15926,-1.65608 -1.15926,-2.81534c0,-3.91939 2.1529,-5.87908 6.45871,-5.87908h3.60197v6.45871c-0.44162,0.85564 -1.15926,1.61468 -2.1529,2.27711c-1.02125,0.66243 -2.30471,0.99365 -3.85039,0.99365z" data-paper-data="{&quot;glyphName&quot;:&quot;a&quot;,&quot;glyphIndex&quot;:2,&quot;word&quot;:1,&quot;line&quot;:1}" style="fill: rgb(0,195,137);"></path><path d="M436.31125,227.76536v0c0,1.13165 -0.42782,2.0425 -1.28346,2.73253c-0.85564,0.69003 -2.1253,1.03505 -3.80898,1.03505c-1.82169,0 -3.32596,-0.42782 -4.51282,-1.28346c-1.18686,-0.85564 -1.79409,-2.20811 -1.82169,-4.0574h-11.59256c0,2.34611 0.74524,4.59562 2.23571,6.74853c1.49047,2.1253 3.57437,3.80898 6.2517,5.05104c2.67733,1.24206 5.71348,1.86309 9.10844,1.86309c5.13385,0 9.31545,-1.14546 12.5448,-3.43637c3.20175,-2.31851 4.80263,-5.32706 4.80263,-9.02564c0,-5.38226 -2.98094,-9.12224 -8.94283,-11.21994c-1.79409,-0.60723 -3.87799,-1.14546 -6.2517,-1.61468c-2.34611,-0.44162 -4.0712,-1.00745 -5.17525,-1.69748c-1.07645,-0.69003 -1.61468,-1.60088 -1.61468,-2.73253c0,-1.10405 0.44162,-2.0149 1.32486,-2.73253c0.88324,-0.74524 1.9735,-1.11785 3.27076,-1.11785c1.68368,0 2.95334,0.41402 3.80898,1.24206c1.95969,2.40132 4.34721,3.60197 7.16255,3.60197h6.50011c0,-3.91939 -1.58708,-7.07974 -4.76123,-9.48106c-3.20175,-2.42892 -7.42476,-3.64338 -12.66901,-3.64338c-4.85783,0 -8.80482,1.20066 -11.84097,3.60197c-3.00855,2.40132 -4.51282,5.45126 -4.51282,9.14984c0,2.0977 0.52443,3.96079 1.57328,5.58927c1.07645,1.60088 2.60833,2.96714 4.59562,4.0988c2.0149,1.13165 4.56802,2.0563 7.65937,2.77393c3.09135,0.69003 5.18905,1.35247 6.2931,1.9873c1.10405,0.66243 1.65608,1.51807 1.65608,2.56692z" data-paper-data="{&quot;glyphName&quot;:&quot;s&quot;,&quot;glyphIndex&quot;:3,&quot;word&quot;:1,&quot;line&quot;:1}" style="fill: rgb(0,195,137);"></path><path d="M472.99342,227.76536v0c0,1.13165 -0.42782,2.0425 -1.28346,2.73253c-0.85564,0.69003 -2.1253,1.03505 -3.80898,1.03505c-1.82169,0 -3.32596,-0.42782 -4.51282,-1.28346c-1.18686,-0.85564 -1.79409,-2.20811 -1.82169,-4.0574h-11.59256c0,2.34611 0.74524,4.59562 2.23571,6.74853c1.49047,2.1253 3.57437,3.80898 6.2517,5.05104c2.67733,1.24206 5.71348,1.86309 9.10844,1.86309c5.13385,0 9.31545,-1.14546 12.5448,-3.43637c3.20175,-2.31851 4.80263,-5.32706 4.80263,-9.02564c0,-5.38226 -2.98094,-9.12224 -8.94283,-11.21994c-1.79409,-0.60723 -3.87799,-1.14546 -6.2517,-1.61468c-2.34611,-0.44162 -4.0712,-1.00745 -5.17525,-1.69748c-1.07645,-0.69003 -1.61468,-1.60088 -1.61468,-2.73253c0,-1.10405 0.44162,-2.0149 1.32486,-2.73253c0.88324,-0.74524 1.9735,-1.11785 3.27076,-1.11785c1.68368,0 2.95334,0.41402 3.80898,1.24206c1.95969,2.40132 4.34721,3.60197 7.16255,3.60197h6.50011c0,-3.91939 -1.58708,-7.07974 -4.76123,-9.48106c-3.20175,-2.42892 -7.42476,-3.64338 -12.66901,-3.64338c-4.85783,0 -8.80482,1.20066 -11.84097,3.60197c-3.00855,2.40132 -4.51282,5.45126 -4.51282,9.14984c0,2.0977 0.52443,3.96079 1.57328,5.58927c1.07645,1.60088 2.60833,2.96714 4.59562,4.0988c2.0149,1.13165 4.56802,2.0563 7.65937,2.77393c3.09135,0.69003 5.18905,1.35247 6.2931,1.9873c1.10405,0.66243 1.65608,1.51807 1.65608,2.56692z" data-paper-data="{&quot;glyphName&quot;:&quot;s&quot;,&quot;glyphIndex&quot;:4,&quot;lastGlyphOfWord&quot;:true,&quot;word&quot;:1,&quot;line&quot;:1,&quot;lastGlyphOfFirstLine&quot;:true}" style="fill: rgb(0,195,137);"></path><path d="M326.89596,266.61556v0c0.78575,0 1.45524,-0.28463 2.00847,-0.8539c0.55323,-0.56927 0.82985,-1.25479 0.82985,-2.05658v-0.3127c0,-0.80179 -0.27662,-1.4833 -0.82985,-2.04455c-0.55323,-0.56125 -1.22272,-0.84187 -2.00847,-0.84187h-6.99959c-0.78575,0 -1.45524,-0.28463 -2.00847,-0.8539c-0.55323,-0.56927 -0.82985,-1.25479 -0.82985,-2.05658v-1.41916c0,-0.80179 0.27662,-1.4833 0.82985,-2.04455c0.55323,-0.56125 1.22272,-0.84187 2.00847,-0.84187h9.35683c0.78575,0 1.45524,-0.28463 2.00847,-0.8539c0.55323,-0.56927 0.82985,-1.25479 0.82985,-2.05658v-0.55323c0,-0.80179 -0.27662,-1.48731 -0.82985,-2.05658c-0.55323,-0.56927 -1.22272,-0.8539 -2.00847,-0.8539h-20.2531v25.18408c0,2.50157 0.86192,4.63432 2.58576,6.39825c1.72384,1.76393 3.80447,2.64589 6.2419,2.64589h11.37733c0.78575,0 1.45524,-0.28463 2.00847,-0.8539c0.55323,-0.56927 0.82985,-1.25479 0.82985,-2.05658v-0.52918c0,-0.81782 -0.27662,-1.50736 -0.82985,-2.06861c-0.55323,-0.56125 -1.22272,-0.84187 -2.00847,-0.84187h-9.30873c-0.78575,0 -1.45524,-0.28463 -2.00847,-0.8539c-0.55323,-0.56927 -0.82985,-1.25479 -0.82985,-2.05658v-2.3813c0,-0.80179 0.27662,-1.4833 0.82985,-2.04455c0.55323,-0.56125 1.22272,-0.84187 2.00847,-0.84187z" data-paper-data="{&quot;glyphName&quot;:&quot;E&quot;,&quot;glyphIndex&quot;:5,&quot;firstGlyphOfWord&quot;:true,&quot;word&quot;:2,&quot;line&quot;:2,&quot;firstGlyphOfSecondLine&quot;:true}" style="fill: rgb(0,195,137);"></path><path d="M339.54814,263.24806v0v0c-2.53364,-4.5381 -5.99735,-6.80716 -10.39114,-6.80716h-0.40891l5.62853,11.20896c0.27261,0.56125 0.27261,1.1225 0,1.68375l-2.3813,4.73855c-0.75368,1.71582 -0.70557,3.33543 0.14432,4.85882c0.84989,1.52339 2.12473,2.28509 3.82452,2.28509v0l3.55993,-7.33634l1.08241,2.16482c1.98843,3.44768 4.65837,5.17151 8.00983,5.17151h2.06861l-5.91718,-11.76219c-0.28864,-0.64143 -0.28062,-1.28286 0.02405,-1.92428l2.04455,-4.041c0.73764,-1.69978 0.68954,-3.29935 -0.14432,-4.79868c-0.83386,-1.49934 -2.09266,-2.24901 -3.77641,-2.24901v0z" data-paper-data="{&quot;glyphName&quot;:&quot;x&quot;,&quot;glyphIndex&quot;:6,&quot;word&quot;:2,&quot;line&quot;:2}" style="fill: rgb(0,195,137);"></path><path d="M362.32686,275.347v0c-1.21871,0 -2.10068,-0.46504 -2.64589,-1.39511c-0.56125,-0.91404 -0.84187,-2.56571 -0.84187,-4.95503c0,-1.36303 0.04811,-2.42941 0.14432,-3.19912c0.32071,-2.43743 1.41114,-3.65614 3.27128,-3.65614c0.97818,0 1.76393,0.32873 2.35725,0.9862c0.57729,0.65746 0.86593,1.60357 0.86593,2.83832h1.13052c1.74789,0 2.98665,-0.8098 3.71627,-2.42941c0.72962,-1.61961 0.50112,-3.11093 -0.68553,-4.47396c-0.01604,-0.01604 -0.04009,-0.03207 -0.07216,-0.04811c-1.76393,-1.71582 -4.14523,-2.57373 -7.14391,-2.57373c-2.21293,0 -4.13721,0.49711 -5.77285,1.49132c-1.61961,0.97818 -2.86237,2.38932 -3.7283,4.23343c-0.84989,1.82807 -1.27484,3.93677 -1.27484,6.32609v0.3127c0,3.83253 0.96214,6.83121 2.88643,8.99603c1.94032,2.14878 4.59423,3.22318 7.96173,3.22318c2.85436,0 5.18755,-0.82584 6.99959,-2.47752c1.81203,-1.66771 2.71805,-3.80046 2.71805,-6.39825h-6.735c0.01604,0.99421 -0.25657,1.77195 -0.81782,2.3332c-0.54521,0.57729 -1.32295,0.86593 -2.3332,0.86593z" data-paper-data="{&quot;glyphName&quot;:&quot;c&quot;,&quot;glyphIndex&quot;:7,&quot;word&quot;:2,&quot;line&quot;:2}" style="fill: rgb(0,195,137);"></path><path d="M380.39108,257.35494v0v-10.67978v0c-1.98843,0 -3.68821,0.73764 -5.09935,2.21293c-1.41114,1.47528 -2.11671,3.26327 -2.11671,5.36394v26.96404v0c1.98843,0 3.68821,-0.74165 5.09935,-2.22495c1.41114,-1.4833 2.11671,-3.26727 2.11671,-5.35192v-9.88601c0.60936,-0.97818 1.65168,-1.46727 3.12696,-1.46727c1.20268,0 2.05257,0.29666 2.54968,0.88998c0.49711,0.60936 0.74566,1.56348 0.74566,2.86237v15.17779v0c1.98843,0 3.68821,-0.74165 5.09935,-2.22495c1.41114,-1.4833 2.11671,-3.27529 2.11671,-5.37597v-7.7693c-0.03207,-3.09489 -0.69755,-5.4361 -1.99645,-7.02364c-1.29889,-1.60357 -3.21516,-2.40536 -5.7488,-2.40536c-1.74789,0 -3.26327,0.5372 -4.54612,1.61159c-0.28864,0.2245 -0.5853,0.26058 -0.88998,0.10824c-0.30468,-0.15234 -0.45702,-0.41292 -0.45702,-0.78174z" data-paper-data="{&quot;glyphName&quot;:&quot;h&quot;,&quot;glyphIndex&quot;:8,&quot;word&quot;:2,&quot;line&quot;:2}" style="fill: rgb(0,195,137);"></path><path d="M413.94579,280.63879l3.17507,-0.04811v-0.3608c-0.62539,-1.13854 -0.95412,-2.79021 -0.9862,-4.95503v-10.41519c-0.03207,-2.54968 -0.90602,-4.56216 -2.62184,-6.03744c-1.69978,-1.45925 -4.02496,-2.18887 -6.97553,-2.18887c-2.95057,0 -5.37196,0.71359 -7.26417,2.14077c-1.90825,1.41114 -2.86237,3.25525 -2.86237,5.53232h7.19201c0,-1.71582 0.85791,-2.57373 2.57373,-2.57373c1.82807,0 2.74211,1.08241 2.74211,3.24723v1.25079h-2.21293c-3.52786,0 -6.22185,0.64945 -8.082,1.94834c-2.42139,1.71582 -3.25525,4.50603 -2.50157,8.37064c1.796,2.98264 4.32162,4.47396 7.57687,4.47396c2.37328,0 4.22541,-0.84187 5.55637,-2.52562c1.07439,1.26682 2.63787,1.98041 4.69044,2.14077zM405.43083,275.80402v0c-0.68954,0 -1.25079,-0.20045 -1.68375,-0.60134c-0.449,-0.41693 -0.6735,-0.96214 -0.6735,-1.63564c0,-2.27707 1.25079,-3.41561 3.75236,-3.41561h2.09266v3.75236c-0.25657,0.49711 -0.6735,0.93809 -1.25079,1.32295c-0.59332,0.38486 -1.33898,0.57729 -2.23698,0.57729z" data-paper-data="{&quot;glyphName&quot;:&quot;a&quot;,&quot;glyphIndex&quot;:9,&quot;word&quot;:2,&quot;line&quot;:2}" style="fill: rgb(0,195,137);"></path><path d="M424.818,256.87387v0v0c-1.86014,0 -3.44768,0.68954 -4.7626,2.06861c-1.31493,1.37907 -1.97239,3.03877 -1.97239,4.97909v17.10208h1.05836c1.69978,0 3.14701,-0.62539 4.34167,-1.87618c1.19466,-1.25079 1.79199,-2.75814 1.79199,-4.52207v-10.65573c0.6735,-1.15457 1.71582,-1.73186 3.12696,-1.73186c1.25079,0 2.1087,0.28864 2.57373,0.86593c0.46504,0.56125 0.69755,1.45123 0.69755,2.66994v15.24996h1.20268c1.65168,0 3.06683,-0.61337 4.24545,-1.8401c1.17862,-1.22673 1.76794,-2.71404 1.76794,-4.46193v-9.26062c-0.03207,-3.01471 -0.64945,-5.27575 -1.85212,-6.7831c-1.18664,-1.49132 -2.98264,-2.23698 -5.388,-2.23698c-2.80625,0 -5.00314,1.09043 -6.59067,3.27128z" data-paper-data="{&quot;glyphName&quot;:&quot;n&quot;,&quot;glyphIndex&quot;:10,&quot;word&quot;:2,&quot;line&quot;:2}" style="fill: rgb(0,195,137);"></path><path d="M439.85147,268.41958v0v0.24054c0,3.62407 0.86593,6.5105 2.59778,8.65928c1.74789,2.14878 4.02496,3.22318 6.83121,3.22318c2.11671,0 3.8646,-0.75368 5.24368,-2.26103v0.72161c0,3.27128 -1.59555,4.90693 -4.78666,4.90693c-2.19689,0 -3.96082,-0.79377 -5.29178,-2.3813l-3.00669,4.23343c0.83386,1.02629 2.04455,1.86014 3.63209,2.50157c1.58753,0.64143 3.23119,0.96214 4.93098,0.96214c2.35725,0 4.43387,-0.40891 6.22987,-1.22673c1.796,-0.80179 3.16705,-1.94834 4.11316,-3.43966c0.94611,-1.50736 1.41916,-3.2793 1.41916,-5.31584v-15.68292c0,-1.796 -0.63742,-3.33142 -1.91226,-4.60626c-1.27484,-1.27484 -2.81828,-1.91226 -4.63031,-1.91226v0l-0.24054,1.99645c-1.36303,-1.61961 -3.24723,-2.42941 -5.65259,-2.42941c-1.90825,0 -3.57596,0.48909 -5.00314,1.46727c-1.44321,0.97818 -2.54968,2.35725 -3.31939,4.13721c-0.76971,1.796 -1.15457,3.8646 -1.15457,6.20582zM447.06754,268.85254v0c0,-2.16482 0.3608,-3.82452 1.08241,-4.97909c0.73764,-1.13854 1.73987,-1.7078 3.00669,-1.7078c1.53943,0 2.66193,0.52116 3.3675,1.56348v9.71764c-0.72161,1.04232 -1.85212,1.56348 -3.39155,1.56348c-1.28286,0 -2.28509,-0.55323 -3.00669,-1.6597c-0.70557,-1.10646 -1.05836,-2.6058 -1.05836,-4.49802z" data-paper-data="{&quot;glyphName&quot;:&quot;g&quot;,&quot;glyphIndex&quot;:11,&quot;word&quot;:2,&quot;line&quot;:2}" style="fill: rgb(0,195,137);"></path><path d="M474.94561,281.0477v0c1.95636,0 3.78443,-0.37684 5.48421,-1.13052c1.69978,-0.75368 3.00669,-1.77195 3.92073,-3.0548l-3.39155,-3.99289c-0.93007,0.81782 -1.78798,1.43119 -2.57373,1.8401c-0.78575,0.40891 -1.76393,0.61337 -2.93453,0.61337c-1.42718,0 -2.58977,-0.37684 -3.48777,-1.13052c-0.88196,-0.76971 -1.45925,-1.82005 -1.73186,-3.15102h11.88246c0.80179,0 1.4833,-0.28062 2.04455,-0.84187c0.56125,-0.56125 0.84187,-1.24277 0.84187,-2.04455v0c-0.14432,-2.29311 -0.42896,-4.06906 -0.8539,-5.32786c-0.42495,-1.2588 -1.11047,-2.37729 -2.05658,-3.35547c-1.94032,-2.08464 -4.58621,-3.12696 -7.93767,-3.12696c-2.37328,0 -4.42585,0.51314 -6.15771,1.53943c-1.73186,1.01025 -3.0548,2.45346 -3.96884,4.32964c-0.898,1.86014 -1.347,4.00893 -1.347,6.44635v0.62539c0,3.47975 1.13052,6.31005 3.39155,8.49091c2.26103,2.18086 5.21962,3.27128 8.87576,3.27128zM474.10374,262.06944v0c1.18664,0 2.09266,0.32873 2.71805,0.9862c0.62539,0.65746 0.93007,1.57952 0.91404,2.76616v0.57729h-7.50471c0.41693,-2.88643 1.7078,-4.32964 3.87262,-4.32964z" data-paper-data="{&quot;glyphName&quot;:&quot;e&quot;,&quot;glyphIndex&quot;:12,&quot;lastGlyphOfWord&quot;:true,&quot;word&quot;:2,&quot;line&quot;:2,&quot;lastGlyphOfSecondLine&quot;:true}" style="fill: rgb(0,195,137);"></path></g><g data-paper-data="{&quot;isIcon&quot;:&quot;true&quot;,&quot;iconType&quot;:&quot;icon&quot;,&quot;rawIconId&quot;:&quot;96247d8a-923f-4d35-a2de-2b5c064a88c3&quot;,&quot;source&quot;:&quot;inline&quot;,&quot;selectedEffects&quot;:{&quot;container&quot;:&quot;&quot;,&quot;transformation&quot;:&quot;&quot;,&quot;pattern&quot;:&quot;&quot;},&quot;isDetailed&quot;:false,&quot;fillRule&quot;:&quot;nonzero&quot;,&quot;bounds&quot;:{&quot;x&quot;:65,&quot;y&quot;:182.7623765197489,&quot;width&quot;:215.49923554006062,&quot;height&quot;:104.47524696050226},&quot;iconStyle&quot;:&quot;standalone&quot;,&quot;suitableAsStandaloneIcon&quot;:true}"><path d="M99.26666,243.37629c0,3.35052 -5.17807,6.70103 -13.55437,6.70103c-6.54874,0 -11.42222,2.13215 -11.42222,4.2643c0,2.58904 7.76711,4.72119 7.76711,8.07171c0,1.97986 -3.04593,4.11199 -3.04593,6.39645c0,0.45689 0.15229,0.91378 0.60918,1.37066c2.43674,2.43674 9.44237,2.74133 15.99111,7.9194c7.46252,5.93956 20.25541,9.13778 32.896,9.13778c12.336,0 21.62607,-3.19822 30.15467,-7.46252c0.15229,0 1.21837,-0.60918 2.13215,-0.60918c1.52297,0 2.28444,1.37066 2.28444,2.89363c0,2.28444 1.97986,3.19822 3.65511,3.19822c1.97986,0 3.80741,-1.37066 3.80741,-3.35052c0,-1.52297 -1.21837,-3.35052 -3.35052,-3.80741c-1.21837,-0.3046 -1.97986,-0.91378 -1.97986,-1.67526c0,-0.60918 0.45689,-1.37066 2.58904,-2.89363c2.28444,-1.67526 2.89363,-2.58904 2.89363,-4.56889c0,-2.89363 -1.06607,-9.29008 -5.17807,-13.40207c-5.02578,-5.02578 -2.74133,-10.66074 -8.224,-10.66074h-19.03703c-2.28444,0 -4.41659,-2.13215 -7.00563,-2.13215c-1.82755,0 -3.35052,1.06607 -3.35052,2.89363c0,1.82755 1.37066,2.89363 2.89363,2.89363c1.37066,0 1.82755,-0.76148 3.35052,-1.21837c0.45689,-0.15229 0.76148,-0.15229 0.91378,-0.15229c1.52297,0 1.97986,0.91378 1.97986,2.13215c0,3.50281 -4.41659,7.76711 -8.68089,7.76711c-5.02578,0 -9.29008,-6.24414 -9.29008,-13.24978c0,-10.20385 -8.98548,-8.52859 -9.13778,-11.72681c-0.15229,-3.04593 8.68089,-2.43674 10.50844,-10.81304c0.91378,-4.2643 4.11199,-8.37629 10.96533,-8.37629c5.63496,0 10.35615,2.74133 10.35615,4.87348c0,0.3046 -0.15229,1.37066 -1.37066,1.37066c-1.37066,0 -1.67526,-1.52297 -3.04593,-1.52297c-0.45689,0 -1.06607,0.15229 -1.06607,0.91378c0,0.45689 0.3046,1.06607 0.60918,1.82755c0.3046,0.91378 0.91378,1.97986 1.37066,4.41659h25.73808c7.9194,0 21.47378,-2.74133 21.47378,-6.54874c0,-4.56889 -19.79852,-5.33037 -19.79852,-11.26992c0,-2.89363 4.56889,-5.17807 4.56889,-7.15793c0,-1.37066 -1.97986,-3.04593 -4.56889,-4.72119c-8.98548,-5.78725 -20.1031,-12.336 -37.16029,-12.336c-22.08296,0 -38.83555,10.96533 -42.33837,17.20948c-2.58904,4.56889 -8.98548,5.33037 -8.98548,7.9194c0,3.80741 12.64059,5.02578 12.64059,10.96533c0,2.89363 -3.35052,5.78725 -10.96533,8.68089c-4.87348,1.82755 -11.11763,2.43674 -11.11763,3.9597c0,3.35052 31.52533,3.50281 31.52533,11.8791zM155.76858,234.8477c3.19822,0 5.17807,-0.60918 5.17807,-2.89363c0,-1.97986 1.67526,-2.43674 1.67526,-3.35052c0,-0.76148 -1.06607,-1.21837 -3.80741,-1.21837c-5.63496,0 -13.40207,1.82755 -13.40207,3.50281c0,1.21837 3.80741,3.9597 10.35615,3.9597zM164.75407,248.70666c0,1.67526 0.60918,2.89363 1.67526,2.89363c2.28444,0 9.89926,-5.02578 9.89926,-8.07171c0,-1.52297 -2.13215,-2.74133 -4.41659,-2.74133c-4.72119,0 -7.15793,4.72119 -7.15793,7.9194zM84.03703,244.74696c0,1.21837 0.3046,1.67526 2.28444,1.67526c3.50281,0 8.37629,-1.52297 8.37629,-3.35052c0,-2.28444 -7.31022,-4.2643 -9.89926,-4.2643c-1.06607,0 -2.74133,0.3046 -2.74133,1.37066c0,1.06607 1.97986,1.67526 1.97986,4.56889zM97.5914,218.24741c0,-1.82755 5.17807,-3.50281 8.07171,-3.50281c2.74133,0 4.2643,1.52297 4.2643,3.04593c0,1.82755 -2.28444,2.43674 -6.09185,2.43674c-5.78725,0 -6.24414,-1.37066 -6.24414,-1.97986zM164.90636,219.16118c0,-1.82755 1.21837,-3.19822 4.72119,-3.19822c3.50281,0 7.76711,1.37066 7.76711,2.58904c0,1.21837 -5.33037,2.89363 -8.83318,2.89363c-3.50281,0 -3.65511,-1.67526 -3.65511,-2.28444zM89.06282,268.35288c0,-0.60918 0.45689,-1.06607 1.06607,-1.06607c0.91378,0 2.58904,0.91378 6.39645,1.67526c4.87348,0.91378 8.07171,0.60918 8.07171,2.43674c0,1.37066 -1.97986,1.97986 -3.50281,1.97986c-3.04593,0 -12.03141,-2.28444 -12.03141,-5.02578zM70.48267,208.65273c2.43674,0 3.35052,-1.37066 3.35052,-3.04593c0,-0.76148 -0.15229,-2.43674 -2.58904,-2.43674c-2.43674,0 -6.24414,1.67526 -6.24414,2.89363c0,1.21837 3.04593,2.58904 5.48267,2.58904zM116.78074,232.10637c0,0.91378 1.06607,2.58904 3.9597,2.58904c0.91378,0 4.56889,-0.15229 4.56889,-2.28444c0,-1.97986 -2.89363,-2.28444 -4.2643,-2.28444c-2.28444,0 -4.2643,0.91378 -4.2643,1.97986zM161.55584,196.46903c1.06607,0 3.9597,0.15229 3.9597,2.13215c0,1.52297 -1.82755,2.28444 -4.41659,2.28444c-1.06607,0 -4.11199,-0.15229 -4.11199,-1.97986c0,-1.52297 1.97986,-2.43674 4.56889,-2.43674zM173.28266,206.06371c0,2.58904 8.52859,2.74133 14.62044,4.2643c6.85333,1.67526 12.4883,5.63496 12.4883,8.83318c0,4.72119 -12.4883,7.31022 -16.60029,8.37629c-3.9597,1.06607 -7.31022,3.04593 -7.31022,4.41659c0,1.21837 2.43674,2.74133 5.33037,3.80741c7.31022,2.74133 10.66074,4.11199 10.66074,10.35615c0,6.24414 3.19822,4.2643 3.19822,10.35615c0,5.48267 -9.89926,9.44237 -9.89926,17.97097v10.81304h80.41244v-6.09185c0,-10.05155 -5.33037,-8.07171 -5.33037,-13.40207c0,-3.35052 1.97986,-4.87348 1.97986,-7.46252c0,-1.97986 -1.06607,-4.87348 -4.87348,-4.87348c-2.74133,0 -3.50281,1.67526 -7.46252,1.67526h-24.5197c-2.89363,0 -5.93956,-3.35052 -5.93956,-6.24414c0,-2.28444 1.67526,-3.80741 5.93956,-3.80741h30.15467c5.63496,0 6.39645,-1.97986 6.39645,-3.50281c0,-4.11199 -6.09185,-4.2643 -6.09185,-9.13778c0,-3.80741 4.11199,-5.63496 7.61482,-6.70103c2.89363,-0.91378 3.65511,-1.52297 3.65511,-2.28444c0,-1.06607 -1.82755,-1.97986 -3.9597,-1.97986c-4.2643,0 -7.31022,3.50281 -14.31585,3.50281h-23.45362c-2.43674,0 -1.21837,-2.13215 -2.89363,-3.80741c-1.52297,-1.52297 -5.02578,-1.52297 -5.02578,-3.50281c0,-1.67526 2.28444,-2.74133 8.68089,-2.74133c4.2643,0 7.9194,-0.45689 7.9194,-1.67526c0,-1.67526 -7.46252,-0.91378 -7.46252,-3.65511c0,-2.58904 5.93956,-3.04593 11.72681,-3.04593c6.70103,0 13.09748,0.60918 13.09748,3.04593c0,2.28444 -6.24414,1.67526 -6.24414,3.35052c0,1.82755 7.9194,1.97986 16.60029,1.97986c4.72119,0 6.39645,-0.91378 6.39645,-1.82755c0,-0.45689 -0.60918,-0.91378 -2.43674,-1.52297c-3.65511,-1.21837 -5.48267,-2.74133 -5.48267,-5.02578c0,-3.80741 5.33037,-2.58904 5.33037,-11.72681v-10.05155h-80.41244v10.96533c0,6.09185 -12.4883,7.15793 -12.4883,10.35615zM243.79584,264.24088c5.02578,0 10.35615,1.21837 10.35615,2.58904c0,1.52297 -6.85333,3.65511 -12.1837,3.65511c-3.19822,0 -5.93956,-0.76148 -5.93956,-2.89363c-0.15229,-2.43674 3.65511,-3.35052 7.76711,-3.35052zM183.02962,259.06281c0,1.97986 1.82755,4.2643 3.9597,4.2643c2.58904,0 6.39645,-3.35052 6.39645,-6.09185c0,-2.13215 -1.97986,-2.74133 -3.65511,-2.74133c-2.89363,0 -6.70103,1.82755 -6.70103,4.56889zM268.31553,220.98874c0.15229,1.06607 1.97986,1.52297 3.80741,1.52297c2.74133,0 8.37629,-1.06607 8.37629,-4.2643c0,-1.97986 -2.74133,-2.28444 -3.65511,-2.28444c-2.74133,0 -8.83318,2.74133 -8.52859,5.02578zM192.47199,204.08385c0,-1.52297 5.17807,-3.50281 9.13778,-3.50281c2.43674,0 4.41659,0.76148 4.41659,2.89363c0,2.13215 -1.97986,2.74133 -4.2643,2.74133c-1.97986,0 -9.29008,-0.45689 -9.29008,-2.13215zM185.61865,231.95406c0.3046,-1.52297 8.37629,-4.41659 10.35615,-4.41659c1.06607,0 1.06607,0.76148 1.06607,0.91378c0,5.02578 -4.72119,5.63496 -6.70103,5.63496c-2.89363,0 -4.87348,-1.37066 -4.72119,-2.13215zM268.62013,247.0314c1.97986,0 3.50281,-1.37066 3.50281,-3.04593c0,-1.67526 -1.52297,-3.04593 -3.50281,-3.04593c-1.97986,0 -3.65511,1.37066 -3.65511,3.04593c0,1.67526 1.67526,3.04593 3.65511,3.04593zM229.32768,252.51407c1.21837,0 3.35052,-0.3046 3.35052,-1.97986c0,-1.67526 -2.28444,-3.65511 -4.56889,-3.65511c-1.21837,0 -2.43674,0.45689 -2.43674,2.43674c0,2.28444 1.52297,3.19822 3.65511,3.19822zM221.10369,273.53096c0,-1.21837 0.91378,-2.13215 1.97986,-2.13215c1.21837,0 3.04593,0.91378 3.04593,2.13215c0,1.06607 -1.82755,1.97986 -3.04593,1.97986c-1.06607,0 -1.97986,-0.91378 -1.97986,-1.97986zM263.44205,265.30696c0,1.21837 0.91378,2.13215 2.13215,2.13215c1.06607,0 1.97986,-0.91378 1.97986,-2.13215c0,-1.06607 -0.91378,-2.13215 -1.97986,-2.13215c-1.21837,0 -2.13215,1.06607 -2.13215,2.13215zM189.88295,253.27555c1.06607,0 1.97986,-1.06607 1.97986,-2.13215c0,-1.21837 -0.91378,-2.13215 -1.97986,-2.13215c-1.21837,0 -2.13215,0.91378 -2.13215,2.13215c0,1.06607 0.91378,2.13215 2.13215,2.13215z" data-paper-data="{&quot;isPathIcon&quot;:true}" style="fill: rgb(0,195,137);"></path></g></g></g><g class="watermark-group" style="opacity:0.10; stroke: white; stroke-width: 2; stroke-opacity: 0.7;"></g></svg>